<?xml version="1.0" encoding="UTF-8" standalone="no"?><svg xmlns="http://www.w3.org/2000/svg" xmlns:xlink="http://www.w3.org/1999/xlink" contentStyleType="text/css" height="638px" preserveAspectRatio="none" style="width:562px;height:638px;background:#FFFFFF;" version="1.1" viewBox="0 0 562 638" width="562px" zoomAndPan="magnify"><defs/><g><rect fill="none" height="26.2969" id="_title" style="stroke:none;stroke-width:1.0;" width="339" x="104.8408" y="5"/><text fill="#A0522D" font-family="sans-serif" font-size="14" font-weight="bold" lengthAdjust="spacing" textLength="329" x="109.8408" y="22.9951">ER-диаграмма "Строительная компания"</text><!--MD5=[5433d9a41f76d555f091c3a57517ef6f]
class project--><g id="elem_project"><rect codeLine="26" fill="#F1F1F1" height="113.1875" id="project" rx="2.5" ry="2.5" style="stroke:#181818;stroke-width:0.5;" width="228" x="28.34" y="405.2969"/><rect fill="#98FB98" height="32" rx="2.5" ry="2.5" style="stroke:#98FB98;stroke-width:0.5;" width="228" x="28.34" y="405.2969"/><rect fill="#98FB98" height="2.5" style="stroke:#98FB98;stroke-width:0.5;" width="228" x="28.34" y="434.7969"/><rect codeLine="26" fill="none" height="113.1875" id="project" rx="2.5" ry="2.5" style="stroke:#181818;stroke-width:0.5;" width="228" x="28.34" y="405.2969"/><ellipse cx="107.59" cy="421.2969" fill="#ADD1B2" rx="11" ry="11" style="stroke:#181818;stroke-width:1.0;"/><path d="M111.6994,427.2969 L103.9806,427.2969 L103.9806,414.9063 L111.6994,414.9063 L111.6994,417.0625 L106.4338,417.0625 L106.4338,419.7344 L111.1994,419.7344 L111.1994,421.8906 L106.4338,421.8906 L106.4338,425.1406 L111.6994,425.1406 L111.6994,427.2969 Z " fill="#000000"/><text fill="#000000" font-family="sans-serif" font-size="14" font-weight="bold" lengthAdjust="spacing" textLength="56" x="128.09" y="426.1436">Project</text><line style="stroke:#181818;stroke-width:0.5;" x1="29.34" x2="255.34" y1="437.2969" y2="437.2969"/><ellipse cx="39.34" cy="450.9453" fill="#000000" rx="3" ry="3" style="stroke:#000000;stroke-width:1.0;"/><text fill="#4169E1" font-family="sans-serif" font-size="14" lengthAdjust="spacing" textLength="202" x="48.34" y="454.292">id : uuid «autogenerated PK»</text><line style="stroke:#181818;stroke-width:1.0;stroke-dasharray:1.0,2.0;" x1="29.34" x2="255.34" y1="461.5938" y2="461.5938"/><ellipse cx="39.34" cy="475.2422" fill="#000000" rx="3" ry="3" style="stroke:#000000;stroke-width:1.0;"/><text fill="#000000" font-family="sans-serif" font-size="14" lengthAdjust="spacing" textLength="175" x="48.34" y="478.5889">description : string(1000)</text><ellipse cx="39.34" cy="491.5391" fill="#000000" rx="3" ry="3" style="stroke:#000000;stroke-width:1.0;"/><text fill="#000000" font-family="sans-serif" font-size="14" lengthAdjust="spacing" textLength="126" x="48.34" y="494.8857">client : string(100)</text><ellipse cx="39.34" cy="507.8359" fill="#000000" rx="3" ry="3" style="stroke:#000000;stroke-width:1.0;"/><text fill="#000000" font-family="sans-serif" font-size="14" lengthAdjust="spacing" textLength="145" x="48.34" y="511.1826">deadline : timestamp</text></g><!--MD5=[7995dc4b925f04a8b903038d633a4635]
class task--><g id="elem_task"><rect codeLine="34" fill="#F1F1F1" height="113.1875" id="task" rx="2.5" ry="2.5" style="stroke:#181818;stroke-width:0.5;" width="243" x="19.84" y="208.7969"/><rect fill="#98FB98" height="32" rx="2.5" ry="2.5" style="stroke:#98FB98;stroke-width:0.5;" width="243" x="19.84" y="208.7969"/><rect fill="#98FB98" height="2.5" style="stroke:#98FB98;stroke-width:0.5;" width="243" x="19.84" y="238.2969"/><rect codeLine="34" fill="none" height="113.1875" id="task" rx="2.5" ry="2.5" style="stroke:#181818;stroke-width:0.5;" width="243" x="19.84" y="208.7969"/><ellipse cx="116.09" cy="224.7969" fill="#ADD1B2" rx="11" ry="11" style="stroke:#181818;stroke-width:1.0;"/><path d="M120.1994,230.7969 L112.4806,230.7969 L112.4806,218.4063 L120.1994,218.4063 L120.1994,220.5625 L114.9338,220.5625 L114.9338,223.2344 L119.6994,223.2344 L119.6994,225.3906 L114.9338,225.3906 L114.9338,228.6406 L120.1994,228.6406 L120.1994,230.7969 Z " fill="#000000"/><text fill="#000000" font-family="sans-serif" font-size="14" font-weight="bold" lengthAdjust="spacing" textLength="37" x="136.59" y="229.6436">Task</text><line style="stroke:#181818;stroke-width:0.5;" x1="20.84" x2="261.84" y1="240.7969" y2="240.7969"/><ellipse cx="30.84" cy="254.4453" fill="#000000" rx="3" ry="3" style="stroke:#000000;stroke-width:1.0;"/><text fill="#4169E1" font-family="sans-serif" font-size="14" lengthAdjust="spacing" textLength="202" x="39.84" y="257.792">id : uuid «autogenerated PK»</text><line style="stroke:#181818;stroke-width:1.0;stroke-dasharray:1.0,2.0;" x1="20.84" x2="261.84" y1="265.0938" y2="265.0938"/><ellipse cx="30.84" cy="278.7422" fill="#000000" rx="3" ry="3" style="stroke:#000000;stroke-width:1.0;"/><text fill="#000000" font-family="sans-serif" font-size="14" lengthAdjust="spacing" textLength="217" x="39.84" y="282.0889">project_id : uuid «project.id FK»</text><ellipse cx="30.84" cy="295.0391" fill="#000000" rx="3" ry="3" style="stroke:#000000;stroke-width:1.0;"/><text fill="#000000" font-family="sans-serif" font-size="14" lengthAdjust="spacing" textLength="175" x="39.84" y="298.3857">description : string(1000)</text><ellipse cx="30.84" cy="311.3359" fill="#000000" rx="3" ry="3" style="stroke:#000000;stroke-width:1.0;"/><text fill="#000000" font-family="sans-serif" font-size="14" lengthAdjust="spacing" textLength="145" x="39.84" y="314.6826">deadline : timestamp</text></g><!--MD5=[58521b9143a6696c24486cbdfb8e8110]
class employee--><g id="elem_employee"><rect codeLine="42" fill="#F1F1F1" height="145.7813" id="employee" rx="2.5" ry="2.5" style="stroke:#181818;stroke-width:0.5;" width="237" x="313.84" y="192.2969"/><rect fill="#98FB98" height="32" rx="2.5" ry="2.5" style="stroke:#98FB98;stroke-width:0.5;" width="237" x="313.84" y="192.2969"/><rect fill="#98FB98" height="2.5" style="stroke:#98FB98;stroke-width:0.5;" width="237" x="313.84" y="221.7969"/><rect codeLine="42" fill="none" height="145.7813" id="employee" rx="2.5" ry="2.5" style="stroke:#181818;stroke-width:0.5;" width="237" x="313.84" y="192.2969"/><ellipse cx="387.59" cy="208.2969" fill="#ADD1B2" rx="11" ry="11" style="stroke:#181818;stroke-width:1.0;"/><path d="M391.6994,214.2969 L383.9806,214.2969 L383.9806,201.9063 L391.6994,201.9063 L391.6994,204.0625 L386.4338,204.0625 L386.4338,206.7344 L391.1994,206.7344 L391.1994,208.8906 L386.4338,208.8906 L386.4338,212.1406 L391.6994,212.1406 L391.6994,214.2969 Z " fill="#000000"/><text fill="#000000" font-family="sans-serif" font-size="14" font-weight="bold" lengthAdjust="spacing" textLength="76" x="408.09" y="213.1436">Employee</text><line style="stroke:#181818;stroke-width:0.5;" x1="314.84" x2="549.84" y1="224.2969" y2="224.2969"/><ellipse cx="324.84" cy="237.9453" fill="#000000" rx="3" ry="3" style="stroke:#000000;stroke-width:1.0;"/><text fill="#4169E1" font-family="sans-serif" font-size="14" lengthAdjust="spacing" textLength="202" x="333.84" y="241.292">id : uuid «autogenerated PK»</text><line style="stroke:#181818;stroke-width:1.0;stroke-dasharray:1.0,2.0;" x1="314.84" x2="549.84" y1="248.5938" y2="248.5938"/><ellipse cx="324.84" cy="262.2422" fill="#000000" rx="3" ry="3" style="stroke:#000000;stroke-width:1.0;"/><text fill="#000000" font-family="sans-serif" font-size="14" lengthAdjust="spacing" textLength="128" x="333.84" y="265.5889">name : string(100)</text><text fill="#000000" font-family="sans-serif" font-size="14" lengthAdjust="spacing" textLength="150" x="333.84" y="281.8857">surname : string(100)</text><ellipse cx="324.84" cy="294.8359" fill="#000000" rx="3" ry="3" style="stroke:#000000;stroke-width:1.0;"/><text fill="#DC143C" font-family="sans-serif" font-size="14" lengthAdjust="spacing" textLength="131" x="333.84" y="298.1826">passport «unique»</text><text fill="#000000" font-family="sans-serif" font-size="14" lengthAdjust="spacing" textLength="76" x="468.84" y="298.1826">: string(30)</text><ellipse cx="324.84" cy="311.1328" fill="#000000" rx="3" ry="3" style="stroke:#000000;stroke-width:1.0;"/><text fill="#000000" font-family="sans-serif" font-size="14" lengthAdjust="spacing" textLength="125" x="333.84" y="314.4795">email : string(100)</text><ellipse cx="324.84" cy="327.4297" fill="#000000" rx="3" ry="3" style="stroke:#000000;stroke-width:1.0;"/><text fill="#000000" font-family="sans-serif" font-size="14" lengthAdjust="spacing" textLength="183" x="333.84" y="330.7764">post_id : uuid «post.id FK»</text></g><!--MD5=[bb7766bbad17497f5a9660e8495d1b6d]
class post--><g id="elem_post"><rect codeLine="52" fill="#F1F1F1" height="96.8906" id="post" rx="2.5" ry="2.5" style="stroke:#181818;stroke-width:0.5;" width="228" x="319.34" y="413.2969"/><rect fill="#98FB98" height="32" rx="2.5" ry="2.5" style="stroke:#98FB98;stroke-width:0.5;" width="228" x="319.34" y="413.2969"/><rect fill="#98FB98" height="2.5" style="stroke:#98FB98;stroke-width:0.5;" width="228" x="319.34" y="442.7969"/><rect codeLine="52" fill="none" height="96.8906" id="post" rx="2.5" ry="2.5" style="stroke:#181818;stroke-width:0.5;" width="228" x="319.34" y="413.2969"/><ellipse cx="409.09" cy="429.2969" fill="#ADD1B2" rx="11" ry="11" style="stroke:#181818;stroke-width:1.0;"/><path d="M413.1994,435.2969 L405.4806,435.2969 L405.4806,422.9063 L413.1994,422.9063 L413.1994,425.0625 L407.9338,425.0625 L407.9338,427.7344 L412.6994,427.7344 L412.6994,429.8906 L407.9338,429.8906 L407.9338,433.1406 L413.1994,433.1406 L413.1994,435.2969 Z " fill="#000000"/><text fill="#000000" font-family="sans-serif" font-size="14" font-weight="bold" lengthAdjust="spacing" textLength="35" x="429.59" y="434.1436">Post</text><line style="stroke:#181818;stroke-width:0.5;" x1="320.34" x2="546.34" y1="445.2969" y2="445.2969"/><ellipse cx="330.34" cy="458.9453" fill="#000000" rx="3" ry="3" style="stroke:#000000;stroke-width:1.0;"/><text fill="#4169E1" font-family="sans-serif" font-size="14" lengthAdjust="spacing" textLength="202" x="339.34" y="462.292">id : uuid «autogenerated PK»</text><line style="stroke:#181818;stroke-width:1.0;stroke-dasharray:1.0,2.0;" x1="320.34" x2="546.34" y1="469.5938" y2="469.5938"/><text fill="#000000" font-family="sans-serif" font-size="14" lengthAdjust="spacing" textLength="175" x="339.34" y="486.5889">description : string(1000)</text><ellipse cx="330.34" cy="499.5391" fill="#000000" rx="3" ry="3" style="stroke:#000000;stroke-width:1.0;"/><text fill="#000000" font-family="sans-serif" font-size="14" lengthAdjust="spacing" textLength="78" x="339.34" y="502.8857">salary : uint</text></g><!--MD5=[6145bfc0a179a1682bc4dc93354b18c3]
class employeeInTask--><g id="elem_employeeInTask"><rect codeLine="59" fill="#F1F1F1" height="80.5938" id="employeeInTask" rx="2.5" ry="2.5" style="stroke:#181818;stroke-width:0.5;" width="283" x="144.84" y="44.2969"/><rect fill="#98FB98" height="32" rx="2.5" ry="2.5" style="stroke:#98FB98;stroke-width:0.5;" width="283" x="144.84" y="44.2969"/><rect fill="#98FB98" height="2.5" style="stroke:#98FB98;stroke-width:0.5;" width="283" x="144.84" y="73.7969"/><rect codeLine="59" fill="none" height="80.5938" id="employeeInTask" rx="2.5" ry="2.5" style="stroke:#181818;stroke-width:0.5;" width="283" x="144.84" y="44.2969"/><ellipse cx="220.09" cy="60.2969" fill="#ADD1B2" rx="11" ry="11" style="stroke:#181818;stroke-width:1.0;"/><path d="M224.1994,66.2969 L216.4806,66.2969 L216.4806,53.9063 L224.1994,53.9063 L224.1994,56.0625 L218.9338,56.0625 L218.9338,58.7344 L223.6994,58.7344 L223.6994,60.8906 L218.9338,60.8906 L218.9338,64.1406 L224.1994,64.1406 L224.1994,66.2969 Z " fill="#000000"/><text fill="#000000" font-family="sans-serif" font-size="14" font-weight="bold" lengthAdjust="spacing" textLength="119" x="240.59" y="65.1436">Task/employee</text><line style="stroke:#181818;stroke-width:0.5;" x1="145.84" x2="426.84" y1="76.2969" y2="76.2969"/><ellipse cx="155.84" cy="89.9453" fill="#000000" rx="3" ry="3" style="stroke:#000000;stroke-width:1.0;"/><text fill="#000000" font-family="sans-serif" font-size="14" lengthAdjust="spacing" textLength="179" x="164.84" y="93.292">task_id : uuid «task.id FK»</text><ellipse cx="155.84" cy="106.2422" fill="#000000" rx="3" ry="3" style="stroke:#000000;stroke-width:1.0;"/><text fill="#000000" font-family="sans-serif" font-size="14" lengthAdjust="spacing" textLength="257" x="164.84" y="109.5889">employee_id : uuid «employee.id FK»</text><line style="stroke:#181818;stroke-width:0.5;" x1="145.84" x2="426.84" y1="116.8906" y2="116.8906"/></g><!--MD5=[fdddf38235bb60bf41920b5e308f7042]
reverse link employee to post--><g id="link_employee_post"><path codeLine="64" d="M555.68,333.0669 C554.85,335.9069 553.16,339.0269 551.34,341.2969 C484.19,425.1769 384.64,323.9669 319.34,409.2969 C306.37,426.2369 297,457.2969 318.34,457.2969 " fill="none" id="employee-backto-post" style="stroke:#181818;stroke-width:1.0;"/><line style="stroke:#181818;stroke-width:1.0;" x1="555.6816" x2="552.34" y1="333.0656" y2="329.1385"/><line style="stroke:#181818;stroke-width:1.0;" x1="555.6816" x2="552.34" y1="333.0656" y2="322.4553"/><line style="stroke:#181818;stroke-width:1.0;" x1="555.6816" x2="552.34" y1="333.0656" y2="325.7969"/></g><!--MD5=[b94bb292ce7f964e47b82edf24031703]
reverse link task to project--><g id="link_task_project"><path codeLine="65" d="M272.18,278.8869 C282.6,286.1069 274.07,310.3369 263.34,324.7969 C197.88,412.9969 93.8,313.0969 28.34,401.2969 C15.62,418.4269 6,449.2969 27.34,449.2969 " fill="none" id="task-backto-project" style="stroke:#181818;stroke-width:1.0;"/><line style="stroke:#181818;stroke-width:1.0;" x1="272.0708" x2="264.34" y1="278.8546" y2="284.5277"/><line style="stroke:#181818;stroke-width:1.0;" x1="272.0708" x2="264.34" y1="278.8546" y2="269.066"/><line style="stroke:#181818;stroke-width:1.0;" x1="272.0708" x2="264.34" y1="278.8546" y2="276.7969"/></g><!--MD5=[bda1f5af5d78a9d8e79ae440b526c01f]
reverse link employeeInTask to task--><g id="link_employeeInTask_task"><path codeLine="66" d="M136.71,91.0469 C130.6,97.8769 138.42,115.9269 145.34,128.2969 C175.87,182.8369 232.93,150.1969 263.34,204.7969 C273.72,223.4369 285.68,252.7969 264.34,252.7969 " fill="none" id="employeeInTask-backto-task" style="stroke:#181818;stroke-width:1.0;"/><line style="stroke:#181818;stroke-width:1.0;" x1="136.8142" x2="144.34" y1="91.0102" y2="80.7711"/><line style="stroke:#181818;stroke-width:1.0;" x1="136.8142" x2="144.34" y1="91.0102" y2="95.8227"/><line style="stroke:#181818;stroke-width:1.0;" x1="136.8142" x2="144.34" y1="91.0102" y2="88.2969"/></g><!--MD5=[6a1389b663d2ca30489b7861a684b9ec]
reverse link employeeInTask to employee--><g id="link_employeeInTask_employee"><path codeLine="67" d="M435.24,109.9069 C435.39,115.0869 431.82,122.7969 428.34,128.2969 C397.73,176.6869 344.44,139.5869 314.34,188.2969 C303.01,206.6369 291.78,236.7969 313.34,236.7969 " fill="none" id="employeeInTask-backto-employee" style="stroke:#181818;stroke-width:1.0;"/><line style="stroke:#181818;stroke-width:1.0;" x1="435.1379" x2="429.34" y1="109.8091" y2="110.0947"/><line style="stroke:#181818;stroke-width:1.0;" x1="435.1379" x2="429.34" y1="109.8091" y2="98.499"/><line style="stroke:#181818;stroke-width:1.0;" x1="435.1379" x2="429.34" y1="109.8091" y2="104.2969"/></g><rect fill="#FFE4E1" height="77.1875" id="_legend" rx="7.5" ry="7.5" style="stroke:#D87093;stroke-width:1.0;" width="216" x="324.6816" y="532.4844"/><text fill="#D87093" font-family="sans-serif" font-size="14" font-weight="bold" lengthAdjust="spacing" textLength="199" x="330.6816" y="551.4795">Условные обозначения:</text><ellipse cx="336.1816" cy="563.5781" fill="#D87093" rx="2.5" ry="2.5" style="stroke:#D87093;stroke-width:0.0;"/><text fill="#D87093" font-family="sans-serif" font-size="14" lengthAdjust="spacing" textLength="153" x="343.6816" y="567.7764">- обязательное поле</text><text fill="#D87093" font-family="sans-serif" font-size="14" lengthAdjust="spacing" textLength="153" x="330.6816" y="584.0732">PK - первичный ключ</text><text fill="#D87093" font-family="sans-serif" font-size="14" lengthAdjust="spacing" textLength="137" x="330.6816" y="600.3701">FK - внешний ключ</text><rect fill="none" height="11.6406" style="stroke:none;stroke-width:1.0;" width="97" x="225.8408" y="618.6719"/><text fill="#888888" font-family="sans-serif" font-size="10" lengthAdjust="spacing" textLength="97" x="225.8408" y="627.9541">Buchkin Timur, 2024</text><!--MD5=[4e8f1d2ad3ec2a2524f27924e856c2a7]
@startuml
!function $autogenerated($a)
!return "<color:RoyalBlue>" + $a + " <<autogenerated PK>></color>"
!endfunction

!function $unique($a)
!return "<color:Crimson>" + $a + " <<unique>></color>"
!endfunction

!function $setBold($a)
!return "<b>" + $a + " </b>"
!endfunction

skinparam LegendBackgroundColor MistyRose
skinparam LegendBorderColor PaleVioletRed
skinparam LegendFontColor PaleVioletRed

skinparam Class {
    HeaderBackgroundColor PaleGreen
}

'skinparam linetype ortho
skinparam TitleFontColor Sienna

Title ER-диаграмма "Строительная компания"

entity "$setBold("Project")" as project {
    * $autogenerated("id : uuid")
    ..
    * description : string(1000)
    * client : string(100)
    * deadline : timestamp
}

entity "$setBold("Task")" as task {
  * $autogenerated("id : uuid")
  ..
  * project_id : uuid <<project.id FK>>
  * description : string(1000)
  * deadline : timestamp
}

entity "$setBold("Employee")" as employee {
    * $autogenerated("id : uuid")
    ..
    * name : string(100)
    surname : string(100)
    * $unique("passport") : string(30) 
    * email : string(100)
    * post_id : uuid <<post.id FK>>
}

entity "$setBold("Post")" as post {
  * $autogenerated("id : uuid")
  ..
  description : string(1000)
  * salary : uint
}

entity "$setBold("Task/employee")" as employeeInTask {
  * task_id : uuid <<task.id FK>>
  * employee_id : uuid <<employee.id FK>>
}

employee::post_id }- - post::id
task::project_id }- - project::id
employeeInTask::task_id }- - task::id
employeeInTask::employee_id }- - employee::id

legend right
$setBold("Условные обозначения:")
* - обязательное поле
PK - первичный ключ
FK - внешний ключ
end legend

footer Buchkin Timur, 2024
@enduml

@startuml



skinparam LegendBackgroundColor MistyRose
skinparam LegendBorderColor PaleVioletRed
skinparam LegendFontColor PaleVioletRed

skinparam Class {
    HeaderBackgroundColor PaleGreen
}

skinparam TitleFontColor Sienna

Title ER-диаграмма "Строительная компания"

entity "<b>Project </b>" as project {
    * <color:RoyalBlue>id : uuid <<autogenerated PK>></color>
    ..
    * description : string(1000)
    * client : string(100)
    * deadline : timestamp
}

entity "<b>Task </b>" as task {
  * <color:RoyalBlue>id : uuid <<autogenerated PK>></color>
  ..
  * project_id : uuid <<project.id FK>>
  * description : string(1000)
  * deadline : timestamp
}

entity "<b>Employee </b>" as employee {
    * <color:RoyalBlue>id : uuid <<autogenerated PK>></color>
    ..
    * name : string(100)
    surname : string(100)
    * <color:Crimson>passport <<unique>></color> : string(30) 
    * email : string(100)
    * post_id : uuid <<post.id FK>>
}

entity "<b>Post </b>" as post {
  * <color:RoyalBlue>id : uuid <<autogenerated PK>></color>
  ..
  description : string(1000)
  * salary : uint
}

entity "<b>Task/employee </b>" as employeeInTask {
  * task_id : uuid <<task.id FK>>
  * employee_id : uuid <<employee.id FK>>
}

employee::post_id }- - post::id
task::project_id }- - project::id
employeeInTask::task_id }- - task::id
employeeInTask::employee_id }- - employee::id

legend right
<b>Условные обозначения: </b>
* - обязательное поле
PK - первичный ключ
FK - внешний ключ
end legend

footer Buchkin Timur, 2024
@enduml

PlantUML version 1.2022.7(Mon Aug 22 17:01:30 UTC 2022)
(GPL source distribution)
Java Runtime: OpenJDK Runtime Environment
JVM: OpenJDK 64-Bit Server VM
Default Encoding: UTF-8
Language: en
Country: null
--></g></svg>