<?xml version="1.0" encoding="UTF-8" standalone="no"?><svg xmlns="http://www.w3.org/2000/svg" xmlns:xlink="http://www.w3.org/1999/xlink" contentStyleType="text/css" height="489px" preserveAspectRatio="none" style="width:552px;height:489px;background:#FFFFFF;" version="1.1" viewBox="0 0 552 489" width="552px" zoomAndPan="magnify"><defs/><g><rect fill="none" height="26.2969" id="_title" style="stroke:none;stroke-width:1.0;" width="236" x="151.25" y="5"/><text fill="#A0522D" font-family="sans-serif" font-size="14" font-weight="bold" lengthAdjust="spacing" textLength="226" x="156.25" y="22.9951">ER-диаграмма "Автопрокат"</text><!--MD5=[e3f72718913f1e037c5bc72e44de49f6]
class client--><g id="elem_client"><rect codeLine="30" fill="#F1F1F1" height="145.7813" id="client" rx="2.5" ry="2.5" style="stroke:#181818;stroke-width:0.5;" width="259" x="7" y="224.2969"/><rect fill="#98FB98" height="32" rx="2.5" ry="2.5" style="stroke:#98FB98;stroke-width:0.5;" width="259" x="7" y="224.2969"/><rect fill="#98FB98" height="2.5" style="stroke:#98FB98;stroke-width:0.5;" width="259" x="7" y="253.7969"/><rect codeLine="30" fill="none" height="145.7813" id="client" rx="2.5" ry="2.5" style="stroke:#181818;stroke-width:0.5;" width="259" x="7" y="224.2969"/><ellipse cx="107.25" cy="240.2969" fill="#ADD1B2" rx="11" ry="11" style="stroke:#181818;stroke-width:1.0;"/><path d="M111.3594,246.2969 L103.6406,246.2969 L103.6406,233.9063 L111.3594,233.9063 L111.3594,236.0625 L106.0938,236.0625 L106.0938,238.7344 L110.8594,238.7344 L110.8594,240.8906 L106.0938,240.8906 L106.0938,244.1406 L111.3594,244.1406 L111.3594,246.2969 Z " fill="#000000"/><text fill="#000000" font-family="sans-serif" font-size="14" font-weight="bold" lengthAdjust="spacing" textLength="45" x="127.75" y="245.1436">Client</text><line style="stroke:#181818;stroke-width:0.5;" x1="8" x2="265" y1="256.2969" y2="256.2969"/><ellipse cx="18" cy="269.9453" fill="#000000" rx="3" ry="3" style="stroke:#000000;stroke-width:1.0;"/><text fill="#4169E1" font-family="sans-serif" font-size="14" lengthAdjust="spacing" textLength="202" x="27" y="273.292">id : uuid «autogenerated PK»</text><line style="stroke:#181818;stroke-width:1.0;stroke-dasharray:1.0,2.0;" x1="8" x2="265" y1="280.5938" y2="280.5938"/><ellipse cx="18" cy="294.2422" fill="#000000" rx="3" ry="3" style="stroke:#000000;stroke-width:1.0;"/><text fill="#000000" font-family="sans-serif" font-size="14" font-weight="bold" lengthAdjust="spacing" textLength="78" x="27" y="297.5889">password</text><text fill="#000000" font-family="sans-serif" font-size="14" lengthAdjust="spacing" textLength="150" x="110" y="297.5889">«hashed» : string(50)</text><ellipse cx="18" cy="310.5391" fill="#000000" rx="3" ry="3" style="stroke:#000000;stroke-width:1.0;"/><text fill="#000000" font-family="sans-serif" font-size="14" lengthAdjust="spacing" textLength="128" x="27" y="313.8857">name : string(200)</text><text fill="#000000" font-family="sans-serif" font-size="14" lengthAdjust="spacing" textLength="150" x="27" y="330.1826">surname : string(200)</text><ellipse cx="18" cy="343.1328" fill="#000000" rx="3" ry="3" style="stroke:#000000;stroke-width:1.0;"/><text fill="#DC143C" font-family="sans-serif" font-size="14" lengthAdjust="spacing" textLength="131" x="27" y="346.4795">passport «unique»</text><text fill="#000000" font-family="sans-serif" font-size="14" lengthAdjust="spacing" textLength="76" x="162" y="346.4795">: string(20)</text><text fill="#000000" font-family="sans-serif" font-size="14" lengthAdjust="spacing" textLength="125" x="27" y="362.7764">email : string(100)</text></g><!--MD5=[5c19f40aa9512e90106447142f5d7dc3]
class contract--><g id="elem_contract"><rect codeLine="40" fill="#F1F1F1" height="113.1875" id="contract" rx="2.5" ry="2.5" style="stroke:#181818;stroke-width:0.5;" width="228" x="170.5" y="44.2969"/><rect fill="#98FB98" height="32" rx="2.5" ry="2.5" style="stroke:#98FB98;stroke-width:0.5;" width="228" x="170.5" y="44.2969"/><rect fill="#98FB98" height="2.5" style="stroke:#98FB98;stroke-width:0.5;" width="228" x="170.5" y="73.7969"/><rect codeLine="40" fill="none" height="113.1875" id="contract" rx="2.5" ry="2.5" style="stroke:#181818;stroke-width:0.5;" width="228" x="170.5" y="44.2969"/><ellipse cx="243.75" cy="60.2969" fill="#ADD1B2" rx="11" ry="11" style="stroke:#181818;stroke-width:1.0;"/><path d="M247.8594,66.2969 L240.1406,66.2969 L240.1406,53.9063 L247.8594,53.9063 L247.8594,56.0625 L242.5938,56.0625 L242.5938,58.7344 L247.3594,58.7344 L247.3594,60.8906 L242.5938,60.8906 L242.5938,64.1406 L247.8594,64.1406 L247.8594,66.2969 Z " fill="#000000"/><text fill="#000000" font-family="sans-serif" font-size="14" font-weight="bold" lengthAdjust="spacing" textLength="68" x="264.25" y="65.1436">Contract</text><line style="stroke:#181818;stroke-width:0.5;" x1="171.5" x2="397.5" y1="76.2969" y2="76.2969"/><ellipse cx="181.5" cy="89.9453" fill="#000000" rx="3" ry="3" style="stroke:#000000;stroke-width:1.0;"/><text fill="#4169E1" font-family="sans-serif" font-size="14" lengthAdjust="spacing" textLength="202" x="190.5" y="93.292">id : uuid «autogenerated PK»</text><line style="stroke:#181818;stroke-width:1.0;stroke-dasharray:1.0,2.0;" x1="171.5" x2="397.5" y1="100.5938" y2="100.5938"/><ellipse cx="181.5" cy="114.2422" fill="#000000" rx="3" ry="3" style="stroke:#000000;stroke-width:1.0;"/><text fill="#000000" font-family="sans-serif" font-size="14" lengthAdjust="spacing" textLength="163" x="190.5" y="117.5889">car_id : uuid «car.id FK»</text><ellipse cx="181.5" cy="130.5391" fill="#000000" rx="3" ry="3" style="stroke:#000000;stroke-width:1.0;"/><text fill="#000000" font-family="sans-serif" font-size="14" lengthAdjust="spacing" textLength="195" x="190.5" y="133.8857">client_id : uuid «client.id FK»</text><ellipse cx="181.5" cy="146.8359" fill="#000000" rx="3" ry="3" style="stroke:#000000;stroke-width:1.0;"/><text fill="#000000" font-family="sans-serif" font-size="14" lengthAdjust="spacing" textLength="178" x="190.5" y="150.1826">rentedBefore : timestamp</text></g><!--MD5=[3b3eab7c6f523d9ec8a4a473f8e3d6f7]
class car--><g id="elem_car"><rect codeLine="48" fill="#F1F1F1" height="145.7813" id="car" rx="2.5" ry="2.5" style="stroke:#181818;stroke-width:0.5;" width="228" x="317.5" y="224.2969"/><rect fill="#98FB98" height="32" rx="2.5" ry="2.5" style="stroke:#98FB98;stroke-width:0.5;" width="228" x="317.5" y="224.2969"/><rect fill="#98FB98" height="2.5" style="stroke:#98FB98;stroke-width:0.5;" width="228" x="317.5" y="253.7969"/><rect codeLine="48" fill="none" height="145.7813" id="car" rx="2.5" ry="2.5" style="stroke:#181818;stroke-width:0.5;" width="228" x="317.5" y="224.2969"/><ellipse cx="411.25" cy="240.2969" fill="#ADD1B2" rx="11" ry="11" style="stroke:#181818;stroke-width:1.0;"/><path d="M415.3594,246.2969 L407.6406,246.2969 L407.6406,233.9063 L415.3594,233.9063 L415.3594,236.0625 L410.0938,236.0625 L410.0938,238.7344 L414.8594,238.7344 L414.8594,240.8906 L410.0938,240.8906 L410.0938,244.1406 L415.3594,244.1406 L415.3594,246.2969 Z " fill="#000000"/><text fill="#000000" font-family="sans-serif" font-size="14" font-weight="bold" lengthAdjust="spacing" textLength="27" x="431.75" y="245.1436">Car</text><line style="stroke:#181818;stroke-width:0.5;" x1="318.5" x2="544.5" y1="256.2969" y2="256.2969"/><ellipse cx="328.5" cy="269.9453" fill="#000000" rx="3" ry="3" style="stroke:#000000;stroke-width:1.0;"/><text fill="#4169E1" font-family="sans-serif" font-size="14" lengthAdjust="spacing" textLength="202" x="337.5" y="273.292">id : uuid «autogenerated PK»</text><line style="stroke:#181818;stroke-width:1.0;stroke-dasharray:1.0,2.0;" x1="318.5" x2="544.5" y1="280.5938" y2="280.5938"/><ellipse cx="328.5" cy="294.2422" fill="#000000" rx="3" ry="3" style="stroke:#000000;stroke-width:1.0;"/><text fill="#000000" font-family="sans-serif" font-size="14" lengthAdjust="spacing" textLength="123" x="337.5" y="297.5889">mark : string(100)</text><ellipse cx="328.5" cy="310.5391" fill="#000000" rx="3" ry="3" style="stroke:#000000;stroke-width:1.0;"/><text fill="#000000" font-family="sans-serif" font-size="14" lengthAdjust="spacing" textLength="93" x="337.5" y="313.8857">mileage : uint</text><ellipse cx="328.5" cy="326.8359" fill="#000000" rx="3" ry="3" style="stroke:#000000;stroke-width:1.0;"/><text fill="#000000" font-family="sans-serif" font-size="14" lengthAdjust="spacing" textLength="199" x="337.5" y="330.1826">lastMaintenance : timestamp</text><ellipse cx="328.5" cy="343.1328" fill="#000000" rx="3" ry="3" style="stroke:#000000;stroke-width:1.0;"/><text fill="#000000" font-family="sans-serif" font-size="14" lengthAdjust="spacing" textLength="174" x="337.5" y="346.4795">currentPosition : address</text><ellipse cx="328.5" cy="359.4297" fill="#000000" rx="3" ry="3" style="stroke:#000000;stroke-width:1.0;"/><text fill="#000000" font-family="sans-serif" font-size="14" lengthAdjust="spacing" textLength="93" x="337.5" y="362.7764">isInUse : bool</text></g><!--MD5=[fe1aa6c1c07374778822a5177fe823f9]
reverse link contract to client--><g id="link_contract_client"><path codeLine="58" d="M162.28,132.3669 C159.77,138.7769 165.4,151.4269 170.5,160.2969 C195.58,203.9169 241.66,176.5469 266.5,220.2969 C277.15,239.0469 289.06,268.7969 267.5,268.7969 " fill="none" id="contract-backto-client" style="stroke:#181818;stroke-width:1.0;"/><line style="stroke:#181818;stroke-width:1.0;" x1="162.5243" x2="169.5" y1="132.2135" y2="121.3212"/><line style="stroke:#181818;stroke-width:1.0;" x1="162.5243" x2="169.5" y1="132.2135" y2="135.2725"/><line style="stroke:#181818;stroke-width:1.0;" x1="162.5243" x2="169.5" y1="132.2135" y2="128.2969"/></g><!--MD5=[7b8eb27b36e762f3b345765ddd8fd85d]
reverse link contract to car--><g id="link_contract_car"><path codeLine="59" d="M407.43,114.4669 C416.8,121.5569 406.69,144.4469 398.5,160.2969 C377.93,200.0969 338.07,180.4969 317.5,220.2969 C307.6,239.4469 294.94,268.7969 316.5,268.7969 " fill="none" id="contract-backto-car" style="stroke:#181818;stroke-width:1.0;"/><line style="stroke:#181818;stroke-width:1.0;" x1="407.2155" x2="399.5" y1="114.4115" y2="120.0123"/><line style="stroke:#181818;stroke-width:1.0;" x1="407.2155" x2="399.5" y1="114.4115" y2="104.5814"/><line style="stroke:#181818;stroke-width:1.0;" x1="407.2155" x2="399.5" y1="114.4115" y2="112.2969"/></g><rect fill="#FFE4E1" height="77.1875" id="_legend" rx="7.5" ry="7.5" style="stroke:#D87093;stroke-width:1.0;" width="216" x="314.5" y="384.0781"/><text fill="#D87093" font-family="sans-serif" font-size="14" font-weight="bold" lengthAdjust="spacing" textLength="199" x="320.5" y="403.0732">Условные обозначения:</text><ellipse cx="326" cy="415.1719" fill="#D87093" rx="2.5" ry="2.5" style="stroke:#D87093;stroke-width:0.0;"/><text fill="#D87093" font-family="sans-serif" font-size="14" lengthAdjust="spacing" textLength="153" x="333.5" y="419.3701">- обязательное поле</text><text fill="#D87093" font-family="sans-serif" font-size="14" lengthAdjust="spacing" textLength="153" x="320.5" y="435.667">PK - первичный ключ</text><text fill="#D87093" font-family="sans-serif" font-size="14" lengthAdjust="spacing" textLength="137" x="320.5" y="451.9639">FK - внешний ключ</text><rect fill="none" height="11.6406" style="stroke:none;stroke-width:1.0;" width="97" x="220.75" y="470.2656"/><text fill="#888888" font-family="sans-serif" font-size="10" lengthAdjust="spacing" textLength="97" x="220.75" y="479.5479">Buchkin Timur, 2024</text><!--MD5=[f7f3b1fb930cf21f627658422572bc56]
@startuml
!function $autogenerated($a)
!return "<color:RoyalBlue>" + $a + " <<autogenerated PK>></color>"
!endfunction

!function $unique($a)
!return "<color:Crimson>" + $a + " <<unique>></color>"
!endfunction

!function $setBold($a)
!return "<b>" + $a + " </b>"
!endfunction

!function $hashed($a)
!return $setBold($a) + "<<hashed>>"
!endfunction

skinparam LegendBackgroundColor MistyRose
skinparam LegendBorderColor PaleVioletRed
skinparam LegendFontColor PaleVioletRed

skinparam Class {
    HeaderBackgroundColor PaleGreen
}

'skinparam linetype ortho
skinparam TitleFontColor Sienna

Title ER-диаграмма "Автопрокат"

entity "$setBold("Client")" as client {
    * $autogenerated("id : uuid")
    ..
    * $hashed("password") : string(50)
    * name : string(200)
    surname : string(200)
    * $unique("passport") : string(20)
    email : string(100)
}

entity "$setBold("Contract")" as contract {
  * $autogenerated("id : uuid")
  ..
  * car_id : uuid <<car.id FK>>
  * client_id : uuid <<client.id FK>>
  * rentedBefore : timestamp
}

entity "$setBold("Car")" as car {
    * $autogenerated("id : uuid")
    ..
    * mark : string(100)
    * mileage : uint
    * lastMaintenance : timestamp 
    * currentPosition : address
    * isInUse : bool
}

contract::client_id }- - client::id
contract::car_id }- - car::id

legend right
$setBold("Условные обозначения:")
* - обязательное поле
PK - первичный ключ
FK - внешний ключ
end legend

footer Buchkin Timur, 2024
@enduml

@startuml




skinparam LegendBackgroundColor MistyRose
skinparam LegendBorderColor PaleVioletRed
skinparam LegendFontColor PaleVioletRed

skinparam Class {
    HeaderBackgroundColor PaleGreen
}

skinparam TitleFontColor Sienna

Title ER-диаграмма "Автопрокат"

entity "<b>Client </b>" as client {
    * <color:RoyalBlue>id : uuid <<autogenerated PK>></color>
    ..
    * <b>password </b><<hashed>> : string(50)
    * name : string(200)
    surname : string(200)
    * <color:Crimson>passport <<unique>></color> : string(20)
    email : string(100)
}

entity "<b>Contract </b>" as contract {
  * <color:RoyalBlue>id : uuid <<autogenerated PK>></color>
  ..
  * car_id : uuid <<car.id FK>>
  * client_id : uuid <<client.id FK>>
  * rentedBefore : timestamp
}

entity "<b>Car </b>" as car {
    * <color:RoyalBlue>id : uuid <<autogenerated PK>></color>
    ..
    * mark : string(100)
    * mileage : uint
    * lastMaintenance : timestamp 
    * currentPosition : address
    * isInUse : bool
}

contract::client_id }- - client::id
contract::car_id }- - car::id

legend right
<b>Условные обозначения: </b>
* - обязательное поле
PK - первичный ключ
FK - внешний ключ
end legend

footer Buchkin Timur, 2024
@enduml

PlantUML version 1.2022.7(Mon Aug 22 17:01:30 UTC 2022)
(GPL source distribution)
Java Runtime: OpenJDK Runtime Environment
JVM: OpenJDK 64-Bit Server VM
Default Encoding: UTF-8
Language: en
Country: null
--></g></svg>